<svg width="300" height="300" viewBox="0 0 300 300" fill="none" xmlns="http://www.w3.org/2000/svg">
<path d="M43.736 158.812V125.212H55.064V150.028H70.232V158.812H43.736ZM90.5083 159.58C87.7883 159.58 85.2603 159.148 82.9243 158.284C80.6203 157.42 78.6203 156.204 76.9243 154.636C75.2283 153.036 73.9003 151.164 72.9403 149.02C72.0123 146.876 71.5483 144.54 71.5483 142.012C71.5483 139.452 72.0123 137.116 72.9403 135.004C73.9003 132.86 75.2283 131.004 76.9243 129.436C78.6203 127.836 80.6203 126.604 82.9243 125.74C85.2603 124.876 87.7883 124.444 90.5083 124.444C93.2603 124.444 95.7883 124.876 98.0923 125.74C100.396 126.604 102.396 127.836 104.092 129.436C105.788 131.004 107.1 132.86 108.028 135.004C108.988 137.116 109.468 139.452 109.468 142.012C109.468 144.54 108.988 146.876 108.028 149.02C107.1 151.164 105.788 153.036 104.092 154.636C102.396 156.204 100.396 157.42 98.0923 158.284C95.7883 159.148 93.2603 159.58 90.5083 159.58ZM90.5083 150.412C91.5643 150.412 92.5403 150.22 93.4363 149.836C94.3643 149.452 95.1643 148.908 95.8363 148.204C96.5403 147.468 97.0843 146.588 97.4683 145.564C97.8523 144.508 98.0443 143.324 98.0443 142.012C98.0443 140.7 97.8523 139.532 97.4683 138.508C97.0843 137.452 96.5403 136.572 95.8363 135.868C95.1643 135.132 94.3643 134.572 93.4363 134.188C92.5403 133.804 91.5643 133.612 90.5083 133.612C89.4523 133.612 88.4603 133.804 87.5323 134.188C86.6363 134.572 85.8363 135.132 85.1323 135.868C84.4603 136.572 83.9323 137.452 83.5483 138.508C83.1643 139.532 82.9723 140.7 82.9723 142.012C82.9723 143.324 83.1643 144.508 83.5483 145.564C83.9323 146.588 84.4603 147.468 85.1323 148.204C85.8363 148.908 86.6363 149.452 87.5323 149.836C88.4603 150.22 89.4523 150.412 90.5083 150.412ZM113.58 158.812V125.212H129.756C132.892 125.212 135.596 125.724 137.868 126.748C140.172 127.772 141.948 129.244 143.196 131.164C144.444 133.052 145.068 135.292 145.068 137.884C145.068 140.476 144.444 142.716 143.196 144.604C141.948 146.492 140.172 147.964 137.868 149.02C135.596 150.044 132.892 150.556 129.756 150.556H119.868L124.908 145.708V158.812H113.58ZM124.908 146.956L119.868 141.82H129.036C130.604 141.82 131.756 141.468 132.492 140.764C133.26 140.06 133.644 139.1 133.644 137.884C133.644 136.668 133.26 135.708 132.492 135.004C131.756 134.3 130.604 133.948 129.036 133.948H119.868L124.908 128.812V146.956ZM159.151 137.692H174.127V145.852H159.151V137.692ZM159.919 150.268H176.719V158.812H148.783V125.212H176.095V133.756H159.919V150.268ZM193.608 159.58C190.792 159.58 188.072 159.26 185.448 158.62C182.824 157.98 180.664 157.148 178.968 156.124L182.616 147.868C184.216 148.796 185.992 149.548 187.944 150.124C189.928 150.668 191.848 150.94 193.704 150.94C194.792 150.94 195.64 150.876 196.248 150.748C196.888 150.588 197.352 150.38 197.64 150.124C197.928 149.836 198.072 149.5 198.072 149.116C198.072 148.508 197.736 148.028 197.064 147.676C196.392 147.324 195.496 147.036 194.376 146.812C193.288 146.556 192.088 146.3 190.776 146.044C189.464 145.756 188.136 145.388 186.792 144.94C185.48 144.492 184.264 143.9 183.144 143.164C182.056 142.428 181.176 141.468 180.504 140.284C179.832 139.068 179.496 137.564 179.496 135.772C179.496 133.692 180.072 131.804 181.224 130.108C182.408 128.38 184.152 127.004 186.456 125.98C188.792 124.956 191.688 124.444 195.144 124.444C197.416 124.444 199.656 124.684 201.864 125.164C204.072 125.644 206.056 126.38 207.816 127.372L204.408 135.58C202.744 134.748 201.128 134.124 199.56 133.708C198.024 133.292 196.52 133.084 195.048 133.084C193.96 133.084 193.096 133.18 192.456 133.372C191.816 133.564 191.352 133.82 191.064 134.14C190.808 134.46 190.68 134.812 190.68 135.196C190.68 135.772 191.016 136.236 191.688 136.588C192.36 136.908 193.24 137.18 194.328 137.404C195.448 137.628 196.664 137.868 197.976 138.124C199.32 138.38 200.648 138.732 201.96 139.18C203.272 139.628 204.472 140.22 205.56 140.956C206.68 141.692 207.576 142.652 208.248 143.836C208.92 145.02 209.256 146.492 209.256 148.252C209.256 150.3 208.664 152.188 207.48 153.916C206.328 155.612 204.6 156.988 202.296 158.044C199.992 159.068 197.096 159.58 193.608 159.58Z" fill="#0E0F0C"/>
<path d="M216.369 161.726C216.515 161.803 216.83 161.828 217.428 161.501C218.026 161.175 218.821 160.517 219.713 159.506L219.721 159.497L219.73 159.488C224.064 154.874 225.384 148.741 228.575 142.709C228.775 142.331 229.116 142.117 229.436 141.997C229.756 141.876 230.09 141.828 230.45 141.809C231.171 141.77 232.006 141.862 232.891 142.027C234.38 142.305 235.961 142.794 237.192 143.343L237.771 142.248L220.431 133.074L219.852 134.169C220.998 134.877 222.292 135.909 223.359 136.984C223.993 137.622 224.539 138.261 224.913 138.879C225.1 139.188 225.247 139.491 225.328 139.823C225.409 140.156 225.424 140.558 225.223 140.936C222.185 146.679 217.892 150.591 216.329 157.686L216.326 157.699L216.322 157.712C215.988 159.019 215.892 160.046 215.959 160.724C216.025 161.402 216.223 161.648 216.369 161.726ZM217.93 158.774C217.777 158.693 217.659 158.55 217.582 158.354C217.505 158.157 217.471 157.911 217.481 157.629C217.492 157.347 217.547 157.034 217.644 156.71C217.741 156.385 217.878 156.054 218.046 155.736C218.214 155.418 218.411 155.119 218.625 154.856C218.839 154.593 219.066 154.372 219.293 154.204C219.521 154.037 219.743 153.926 219.949 153.879C220.155 153.833 220.34 153.85 220.493 153.931C220.802 154.095 220.964 154.507 220.942 155.076C220.92 155.646 220.717 156.327 220.377 156.969C220.209 157.287 220.012 157.586 219.798 157.849C219.584 158.112 219.357 158.334 219.13 158.501C218.903 158.669 218.68 158.779 218.474 158.826C218.268 158.873 218.083 158.855 217.93 158.774ZM238.492 140.886L239.052 139.826L221.712 130.652L221.152 131.712L238.492 140.886ZM239.773 138.464L240.334 137.405L222.994 128.23L222.433 129.29L239.773 138.464ZM241.064 136.048C242.304 133.722 244.447 129.946 247.943 127.483L245.991 126.45C245.086 126.725 244.258 127.029 243.503 127.361C243.748 126.818 244.18 126.251 244.629 125.729L241.971 124.323C241.346 124.934 240.86 125.643 240.315 126.311C240.527 125.468 240.72 124.616 241.028 123.824L236.84 121.609C236.803 122.211 236.636 122.82 236.42 123.432C236.319 122.596 236.028 121.783 235.653 120.98L233.009 119.582C232.269 120.144 231.569 120.728 231.017 121.391C230.944 120.418 231.228 119.606 231.556 118.812L229.507 117.729C229.369 118.089 229.139 118.412 228.595 118.835C228.732 118.201 228.605 117.662 228.393 117.139L226.916 116.358C226.846 120.634 224.93 124.529 223.705 126.863L241.064 136.048Z" fill="#80B14F"/>
<path d="M149.517 183.812V166.357H156.403C157.727 166.357 158.855 166.61 159.787 167.116C160.719 167.616 161.429 168.312 161.918 169.204C162.412 170.09 162.659 171.113 162.659 172.272C162.659 173.431 162.409 174.454 161.909 175.34C161.409 176.227 160.685 176.917 159.736 177.411C158.793 177.906 157.651 178.153 156.31 178.153H151.92V175.195H155.713C156.423 175.195 157.009 175.073 157.469 174.829C157.935 174.579 158.281 174.235 158.509 173.798C158.741 173.354 158.858 172.846 158.858 172.272C158.858 171.692 158.741 171.187 158.509 170.755C158.281 170.317 157.935 169.979 157.469 169.741C157.003 169.496 156.412 169.374 155.696 169.374H153.207V183.812H149.517ZM170.743 184.067C169.396 184.067 168.237 183.795 167.266 183.249C166.3 182.698 165.555 181.92 165.033 180.914C164.51 179.903 164.249 178.707 164.249 177.326C164.249 175.979 164.51 174.798 165.033 173.781C165.555 172.763 166.291 171.971 167.24 171.403C168.195 170.834 169.314 170.55 170.598 170.55C171.462 170.55 172.266 170.69 173.01 170.968C173.76 171.241 174.413 171.653 174.97 172.204C175.533 172.755 175.97 173.448 176.283 174.283C176.595 175.113 176.751 176.084 176.751 177.198V178.195H165.697V175.945H173.334C173.334 175.423 173.22 174.959 172.993 174.556C172.766 174.153 172.45 173.837 172.047 173.61C171.649 173.377 171.186 173.261 170.658 173.261C170.107 173.261 169.618 173.388 169.192 173.644C168.771 173.894 168.442 174.232 168.203 174.658C167.964 175.079 167.842 175.548 167.837 176.065V178.204C167.837 178.852 167.956 179.411 168.195 179.883C168.439 180.354 168.783 180.718 169.226 180.974C169.669 181.229 170.195 181.357 170.803 181.357C171.206 181.357 171.575 181.3 171.911 181.187C172.246 181.073 172.533 180.903 172.771 180.675C173.01 180.448 173.192 180.17 173.317 179.84L176.675 180.062C176.504 180.869 176.155 181.573 175.626 182.175C175.104 182.772 174.428 183.238 173.598 183.573C172.774 183.903 171.822 184.067 170.743 184.067ZM179.121 183.812V170.721H182.751V183.812H179.121ZM180.945 169.033C180.405 169.033 179.942 168.854 179.555 168.496C179.175 168.133 178.984 167.698 178.984 167.192C178.984 166.692 179.175 166.263 179.555 165.906C179.942 165.542 180.405 165.36 180.945 165.36C181.484 165.36 181.945 165.542 182.325 165.906C182.712 166.263 182.905 166.692 182.905 167.192C182.905 167.698 182.712 168.133 182.325 168.496C181.945 168.854 181.484 169.033 180.945 169.033ZM189.29 176.244V183.812H185.66V170.721H189.12V173.031H189.273C189.563 172.269 190.049 171.667 190.731 171.224C191.413 170.775 192.239 170.55 193.211 170.55C194.12 170.55 194.913 170.749 195.589 171.147C196.265 171.545 196.79 172.113 197.165 172.852C197.54 173.584 197.728 174.459 197.728 175.477V183.812H194.097V176.124C194.103 175.323 193.898 174.698 193.484 174.249C193.069 173.795 192.498 173.567 191.771 173.567C191.282 173.567 190.85 173.673 190.475 173.883C190.106 174.093 189.816 174.4 189.606 174.803C189.401 175.201 189.296 175.681 189.29 176.244ZM207.553 170.721V173.448H199.669V170.721H207.553ZM201.459 167.584H205.089V179.789C205.089 180.124 205.141 180.386 205.243 180.573C205.345 180.755 205.487 180.883 205.669 180.957C205.857 181.031 206.072 181.067 206.317 181.067C206.487 181.067 206.658 181.053 206.828 181.025C206.999 180.991 207.129 180.965 207.22 180.948L207.791 183.65C207.609 183.707 207.354 183.772 207.024 183.846C206.695 183.925 206.294 183.974 205.822 183.991C204.947 184.025 204.18 183.908 203.521 183.641C202.868 183.374 202.359 182.959 201.996 182.397C201.632 181.834 201.453 181.124 201.459 180.266V167.584ZM218.312 178.238V170.721H221.943V183.812H218.457V181.434H218.321C218.026 182.201 217.534 182.817 216.847 183.283C216.165 183.749 215.332 183.982 214.349 183.982C213.474 183.982 212.705 183.783 212.04 183.386C211.375 182.988 210.855 182.423 210.48 181.69C210.111 180.957 209.923 180.079 209.918 179.056V170.721H213.548V178.408C213.554 179.181 213.761 179.792 214.17 180.241C214.58 180.69 215.128 180.914 215.815 180.914C216.253 180.914 216.662 180.815 217.043 180.616C217.423 180.411 217.73 180.11 217.963 179.712C218.202 179.315 218.318 178.823 218.312 178.238ZM224.847 183.812V170.721H228.367V173.005H228.504C228.742 172.192 229.143 171.579 229.705 171.164C230.268 170.744 230.915 170.533 231.648 170.533C231.83 170.533 232.026 170.545 232.237 170.567C232.447 170.59 232.631 170.621 232.79 170.661V173.883C232.62 173.832 232.384 173.786 232.083 173.746C231.782 173.707 231.506 173.687 231.256 173.687C230.722 173.687 230.245 173.803 229.825 174.036C229.41 174.263 229.08 174.582 228.836 174.991C228.597 175.4 228.478 175.871 228.478 176.406V183.812H224.847ZM240.024 184.067C238.678 184.067 237.518 183.795 236.547 183.249C235.581 182.698 234.837 181.92 234.314 180.914C233.791 179.903 233.53 178.707 233.53 177.326C233.53 175.979 233.791 174.798 234.314 173.781C234.837 172.763 235.572 171.971 236.521 171.403C237.476 170.834 238.595 170.55 239.879 170.55C240.743 170.55 241.547 170.69 242.291 170.968C243.041 171.241 243.695 171.653 244.251 172.204C244.814 172.755 245.251 173.448 245.564 174.283C245.876 175.113 246.033 176.084 246.033 177.198V178.195H234.979V175.945H242.615C242.615 175.423 242.501 174.959 242.274 174.556C242.047 174.153 241.732 173.837 241.328 173.61C240.93 173.377 240.467 173.261 239.939 173.261C239.388 173.261 238.899 173.388 238.473 173.644C238.053 173.894 237.723 174.232 237.484 174.658C237.246 175.079 237.124 175.548 237.118 176.065V178.204C237.118 178.852 237.237 179.411 237.476 179.883C237.72 180.354 238.064 180.718 238.507 180.974C238.95 181.229 239.476 181.357 240.084 181.357C240.487 181.357 240.857 181.3 241.192 181.187C241.527 181.073 241.814 180.903 242.053 180.675C242.291 180.448 242.473 180.17 242.598 179.84L245.956 180.062C245.786 180.869 245.436 181.573 244.908 182.175C244.385 182.772 243.709 183.238 242.879 183.573C242.055 183.903 241.104 184.067 240.024 184.067Z" fill="#0E0F0C" fill-opacity="0.6"/>
</svg>
