<svg width="500" height="500" viewBox="0 0 500 500" fill="none" xmlns="http://www.w3.org/2000/svg">
<path d="M112.648 257.395V212.595H127.752V245.683H147.976V257.395H112.648ZM175.011 258.419C171.384 258.419 168.014 257.843 164.899 256.691C161.827 255.539 159.16 253.918 156.899 251.827C154.638 249.694 152.867 247.198 151.587 244.339C150.35 241.48 149.731 238.366 149.731 234.995C149.731 231.582 150.35 228.467 151.587 225.651C152.867 222.792 154.638 220.318 156.899 218.227C159.16 216.094 161.827 214.451 164.899 213.299C168.014 212.147 171.384 211.571 175.011 211.571C178.68 211.571 182.051 212.147 185.123 213.299C188.195 214.451 190.862 216.094 193.123 218.227C195.384 220.318 197.134 222.792 198.371 225.651C199.651 228.467 200.291 231.582 200.291 234.995C200.291 238.366 199.651 241.48 198.371 244.339C197.134 247.198 195.384 249.694 193.123 251.827C190.862 253.918 188.195 255.539 185.123 256.691C182.051 257.843 178.68 258.419 175.011 258.419ZM175.011 246.195C176.419 246.195 177.72 245.939 178.915 245.427C180.152 244.915 181.219 244.19 182.115 243.251C183.054 242.27 183.779 241.096 184.291 239.731C184.803 238.323 185.059 236.744 185.059 234.995C185.059 233.246 184.803 231.688 184.291 230.323C183.779 228.915 183.054 227.742 182.115 226.803C181.219 225.822 180.152 225.075 178.915 224.563C177.72 224.051 176.419 223.795 175.011 223.795C173.603 223.795 172.28 224.051 171.043 224.563C169.848 225.075 168.782 225.822 167.843 226.803C166.947 227.742 166.243 228.915 165.731 230.323C165.219 231.688 164.963 233.246 164.963 234.995C164.963 236.744 165.219 238.323 165.731 239.731C166.243 241.096 166.947 242.27 167.843 243.251C168.782 244.19 169.848 244.915 171.043 245.427C172.28 245.939 173.603 246.195 175.011 246.195ZM205.773 257.395V212.595H227.341C231.522 212.595 235.128 213.278 238.157 214.643C241.229 216.008 243.597 217.971 245.261 220.531C246.925 223.048 247.757 226.035 247.757 229.491C247.757 232.947 246.925 235.934 245.261 238.451C243.597 240.968 241.229 242.931 238.157 244.339C235.128 245.704 231.522 246.387 227.341 246.387H214.157L220.877 239.923V257.395H205.773ZM220.877 241.587L214.157 234.739H226.381C228.472 234.739 230.008 234.27 230.989 233.331C232.013 232.392 232.525 231.112 232.525 229.491C232.525 227.87 232.013 226.59 230.989 225.651C230.008 224.712 228.472 224.243 226.381 224.243H214.157L220.877 217.395V241.587ZM266.535 229.235H286.503V240.115H266.535V229.235ZM267.559 246.003H289.959V257.395H252.711V212.595H289.127V223.987H267.559V246.003ZM312.477 258.419C308.722 258.419 305.096 257.992 301.597 257.139C298.098 256.286 295.218 255.176 292.957 253.811L297.821 242.803C299.954 244.04 302.322 245.043 304.925 245.811C307.57 246.536 310.13 246.899 312.605 246.899C314.056 246.899 315.186 246.814 315.997 246.643C316.85 246.43 317.469 246.152 317.853 245.811C318.237 245.427 318.429 244.979 318.429 244.467C318.429 243.656 317.981 243.016 317.085 242.547C316.189 242.078 314.994 241.694 313.501 241.395C312.05 241.054 310.45 240.712 308.701 240.371C306.952 239.987 305.181 239.496 303.389 238.899C301.64 238.302 300.018 237.512 298.525 236.531C297.074 235.55 295.901 234.27 295.005 232.691C294.109 231.07 293.661 229.064 293.661 226.675C293.661 223.902 294.429 221.384 295.965 219.123C297.544 216.819 299.869 214.984 302.941 213.619C306.056 212.254 309.917 211.571 314.525 211.571C317.554 211.571 320.541 211.891 323.485 212.531C326.429 213.171 329.074 214.152 331.421 215.475L326.877 226.419C324.658 225.31 322.504 224.478 320.413 223.923C318.365 223.368 316.36 223.091 314.397 223.091C312.946 223.091 311.794 223.219 310.941 223.475C310.088 223.731 309.469 224.072 309.085 224.499C308.744 224.926 308.573 225.395 308.573 225.907C308.573 226.675 309.021 227.294 309.917 227.763C310.813 228.19 311.986 228.552 313.437 228.851C314.93 229.15 316.552 229.47 318.301 229.811C320.093 230.152 321.864 230.622 323.613 231.219C325.362 231.816 326.962 232.606 328.413 233.587C329.906 234.568 331.101 235.848 331.997 237.427C332.893 239.006 333.341 240.968 333.341 243.315C333.341 246.046 332.552 248.563 330.973 250.867C329.437 253.128 327.133 254.963 324.061 256.371C320.989 257.736 317.128 258.419 312.477 258.419Z" fill="white"/>
<path d="M347.386 261.303C347.549 261.389 347.903 261.416 348.575 261.046C349.247 260.675 350.142 259.93 351.147 258.786L351.156 258.776L351.165 258.766C356.045 253.546 357.549 246.625 361.151 239.812C361.377 239.385 361.76 239.142 362.12 239.005C362.48 238.868 362.854 238.812 363.259 238.789C364.068 238.742 365.005 238.842 365.997 239.025C367.667 239.332 369.439 239.876 370.819 240.49L371.473 239.253L352.047 228.982L351.393 230.219C352.677 231.013 354.125 232.171 355.319 233.379C356.028 234.096 356.638 234.814 357.056 235.509C357.264 235.856 357.429 236.197 357.518 236.571C357.608 236.946 357.623 237.4 357.397 237.827C353.966 244.314 349.135 248.743 347.355 256.749L347.352 256.764L347.348 256.778C346.968 258.252 346.856 259.411 346.929 260.175C347.001 260.939 347.222 261.216 347.386 261.303ZM349.149 257.969C348.977 257.878 348.845 257.718 348.759 257.496C348.673 257.275 348.636 256.998 348.649 256.679C348.662 256.361 348.725 256.009 348.835 255.642C348.945 255.276 349.099 254.902 349.289 254.543C349.479 254.183 349.701 253.846 349.942 253.548C350.183 253.251 350.439 253 350.694 252.811C350.95 252.621 351.201 252.495 351.432 252.442C351.663 252.388 351.87 252.407 352.042 252.498C352.388 252.681 352.568 253.145 352.541 253.787C352.515 254.43 352.285 255.198 351.901 255.924C351.711 256.283 351.489 256.621 351.248 256.918C351.007 257.215 350.751 257.466 350.496 257.656C350.24 257.846 349.99 257.971 349.758 258.025C349.527 258.079 349.32 258.06 349.149 257.969ZM372.286 237.715L372.919 236.518L353.494 226.247L352.861 227.443L372.286 237.715ZM373.733 234.979L374.366 233.782L354.94 223.511L354.307 224.708L373.733 234.979ZM375.19 232.249C376.59 229.621 379.008 225.355 382.94 222.564L380.754 221.408C379.737 221.721 378.807 222.067 377.958 222.445C378.236 221.832 378.722 221.19 379.228 220.601L376.25 219.026C375.546 219.717 374.999 220.519 374.385 221.274C374.626 220.324 374.845 219.362 375.194 218.468L370.502 215.987C370.458 216.667 370.269 217.354 370.024 218.045C369.914 217.103 369.59 216.188 369.172 215.284L366.21 213.718C365.378 214.355 364.59 215.017 363.968 215.766C363.89 214.67 364.212 213.752 364.582 212.857L362.287 211.644C362.131 212.05 361.872 212.415 361.259 212.894C361.416 212.179 361.275 211.572 361.039 210.984L359.384 210.109C359.291 214.93 357.126 219.33 355.743 221.966L375.19 232.249Z" fill="#80B14F"/>
<path d="M254.023 291V267.727H263.205C264.97 267.727 266.473 268.064 267.716 268.739C268.958 269.405 269.905 270.333 270.557 271.523C271.216 272.705 271.545 274.068 271.545 275.614C271.545 277.159 271.212 278.523 270.545 279.705C269.879 280.886 268.913 281.807 267.648 282.466C266.39 283.125 264.867 283.455 263.08 283.455H257.227V279.511H262.284C263.231 279.511 264.011 279.348 264.625 279.023C265.246 278.689 265.708 278.231 266.011 277.648C266.322 277.057 266.477 276.379 266.477 275.614C266.477 274.841 266.322 274.167 266.011 273.591C265.708 273.008 265.246 272.557 264.625 272.239C264.004 271.913 263.216 271.75 262.261 271.75H258.943V291H254.023ZM282.324 291.341C280.528 291.341 278.983 290.977 277.688 290.25C276.4 289.515 275.407 288.477 274.71 287.136C274.013 285.788 273.665 284.193 273.665 282.352C273.665 280.557 274.013 278.981 274.71 277.625C275.407 276.269 276.388 275.212 277.653 274.455C278.926 273.697 280.419 273.318 282.131 273.318C283.282 273.318 284.354 273.504 285.347 273.875C286.347 274.239 287.218 274.788 287.96 275.523C288.71 276.258 289.294 277.182 289.71 278.295C290.127 279.402 290.335 280.697 290.335 282.182V283.511H275.597V280.511H285.778C285.778 279.814 285.627 279.197 285.324 278.659C285.021 278.121 284.6 277.701 284.062 277.398C283.532 277.087 282.915 276.932 282.21 276.932C281.475 276.932 280.824 277.102 280.256 277.443C279.695 277.777 279.256 278.227 278.938 278.795C278.619 279.356 278.456 279.981 278.449 280.67V283.523C278.449 284.386 278.608 285.133 278.926 285.761C279.252 286.39 279.71 286.875 280.301 287.216C280.892 287.557 281.593 287.727 282.403 287.727C282.941 287.727 283.434 287.652 283.881 287.5C284.328 287.348 284.71 287.121 285.028 286.818C285.347 286.515 285.589 286.144 285.756 285.705L290.233 286C290.006 287.076 289.54 288.015 288.835 288.818C288.138 289.614 287.237 290.235 286.131 290.682C285.032 291.121 283.763 291.341 282.324 291.341ZM293.494 291V273.545H298.335V291H293.494ZM295.926 271.295C295.206 271.295 294.589 271.057 294.074 270.58C293.566 270.095 293.312 269.515 293.312 268.841C293.312 268.174 293.566 267.602 294.074 267.125C294.589 266.64 295.206 266.398 295.926 266.398C296.646 266.398 297.259 266.64 297.767 267.125C298.282 267.602 298.54 268.174 298.54 268.841C298.54 269.515 298.282 270.095 297.767 270.58C297.259 271.057 296.646 271.295 295.926 271.295ZM307.054 280.909V291H302.213V273.545H306.827V276.625H307.031C307.418 275.61 308.065 274.807 308.974 274.216C309.884 273.617 310.986 273.318 312.281 273.318C313.493 273.318 314.55 273.583 315.452 274.114C316.353 274.644 317.054 275.402 317.554 276.386C318.054 277.364 318.304 278.53 318.304 279.886V291H313.463V280.75C313.471 279.682 313.198 278.848 312.645 278.25C312.092 277.644 311.33 277.341 310.361 277.341C309.709 277.341 309.134 277.481 308.634 277.761C308.141 278.042 307.755 278.451 307.474 278.989C307.202 279.519 307.062 280.159 307.054 280.909ZM331.403 273.545V277.182H320.892V273.545H331.403ZM323.278 269.364H328.119V285.636C328.119 286.083 328.188 286.432 328.324 286.682C328.46 286.924 328.65 287.095 328.892 287.193C329.142 287.292 329.43 287.341 329.756 287.341C329.983 287.341 330.21 287.322 330.438 287.284C330.665 287.239 330.839 287.205 330.96 287.182L331.722 290.784C331.479 290.86 331.138 290.947 330.699 291.045C330.259 291.152 329.725 291.216 329.097 291.239C327.93 291.284 326.907 291.129 326.028 290.773C325.157 290.417 324.479 289.864 323.994 289.114C323.509 288.364 323.271 287.417 323.278 286.273V269.364ZM345.75 283.568V273.545H350.591V291H345.943V287.83H345.761C345.367 288.852 344.712 289.674 343.795 290.295C342.886 290.917 341.777 291.227 340.466 291.227C339.299 291.227 338.273 290.962 337.386 290.432C336.5 289.902 335.807 289.148 335.307 288.17C334.814 287.193 334.564 286.023 334.557 284.659V273.545H339.398V283.795C339.405 284.826 339.682 285.64 340.227 286.239C340.773 286.837 341.504 287.136 342.42 287.136C343.004 287.136 343.549 287.004 344.057 286.739C344.564 286.466 344.973 286.064 345.284 285.534C345.602 285.004 345.758 284.348 345.75 283.568ZM354.463 291V273.545H359.156V276.591H359.338C359.656 275.508 360.19 274.689 360.94 274.136C361.69 273.576 362.554 273.295 363.531 273.295C363.774 273.295 364.035 273.311 364.315 273.341C364.596 273.371 364.842 273.413 365.054 273.466V277.761C364.827 277.693 364.512 277.633 364.111 277.58C363.709 277.527 363.342 277.5 363.009 277.5C362.296 277.5 361.66 277.655 361.099 277.966C360.546 278.269 360.107 278.693 359.781 279.239C359.463 279.784 359.304 280.413 359.304 281.125V291H354.463ZM374.699 291.341C372.903 291.341 371.358 290.977 370.062 290.25C368.775 289.515 367.782 288.477 367.085 287.136C366.388 285.788 366.04 284.193 366.04 282.352C366.04 280.557 366.388 278.981 367.085 277.625C367.782 276.269 368.763 275.212 370.028 274.455C371.301 273.697 372.794 273.318 374.506 273.318C375.657 273.318 376.729 273.504 377.722 273.875C378.722 274.239 379.593 274.788 380.335 275.523C381.085 276.258 381.669 277.182 382.085 278.295C382.502 279.402 382.71 280.697 382.71 282.182V283.511H367.972V280.511H378.153C378.153 279.814 378.002 279.197 377.699 278.659C377.396 278.121 376.975 277.701 376.438 277.398C375.907 277.087 375.29 276.932 374.585 276.932C373.85 276.932 373.199 277.102 372.631 277.443C372.07 277.777 371.631 278.227 371.312 278.795C370.994 279.356 370.831 279.981 370.824 280.67V283.523C370.824 284.386 370.983 285.133 371.301 285.761C371.627 286.39 372.085 286.875 372.676 287.216C373.267 287.557 373.968 287.727 374.778 287.727C375.316 287.727 375.809 287.652 376.256 287.5C376.703 287.348 377.085 287.121 377.403 286.818C377.722 286.515 377.964 286.144 378.131 285.705L382.608 286C382.381 287.076 381.915 288.015 381.21 288.818C380.513 289.614 379.612 290.235 378.506 290.682C377.407 291.121 376.138 291.341 374.699 291.341Z" fill="white"/>
</svg>
