<svg width="81" height="45" viewBox="0 0 81 45" fill="none" xmlns="http://www.w3.org/2000/svg">
<path d="M2.28 30V2H11.72V22.68H24.36V30H2.28ZM26.9675 30V2H40.4475C43.0608 2 45.3142 2.42666 47.2075 3.28C49.1275 4.13333 50.6075 5.36 51.6475 6.96C52.6875 8.53333 53.2075 10.4 53.2075 12.56C53.2075 14.72 52.6875 16.5867 51.6475 18.16C50.6075 19.7333 49.1275 20.96 47.2075 21.84C45.3142 22.6933 43.0608 23.12 40.4475 23.12H32.2075L36.4075 19.08V30H26.9675ZM36.4075 20.12L32.2075 15.84H39.8475C41.1542 15.84 42.1142 15.5467 42.7275 14.96C43.3675 14.3733 43.6875 13.5733 43.6875 12.56C43.6875 11.5467 43.3675 10.7467 42.7275 10.16C42.1142 9.57333 41.1542 9.28 39.8475 9.28H32.2075L36.4075 5V20.12Z" fill="#0E0F0C"/>
<path d="M56.6112 31.7939C56.7043 31.8436 56.9037 31.8638 57.2766 31.6722C57.6495 31.4806 58.1418 31.0883 58.6904 30.4798L58.6954 30.4741L58.7006 30.4688C61.3693 27.6967 62.1126 23.944 64.0387 20.2827C64.1596 20.0531 64.3717 19.9264 64.5721 19.8574C64.7726 19.7884 64.9824 19.7636 65.2099 19.7573C65.6647 19.7447 66.1933 19.814 66.7544 19.9291C67.6989 20.123 68.7043 20.4478 69.4898 20.8043L69.8395 20.1397L58.754 14.2303L58.4043 14.895C59.1387 15.3486 59.9706 16.0032 60.6607 16.6808C61.0706 17.0832 61.4245 17.4844 61.6698 17.8702C61.7924 18.0631 61.89 18.2518 61.946 18.4574C62.0019 18.6631 62.017 18.9109 61.8962 19.1406C60.0621 22.6268 57.409 24.9678 56.5262 29.3084L56.5246 29.3164L56.5227 29.3242C56.3308 30.1228 56.2851 30.7534 56.3373 31.1715C56.3893 31.5896 56.518 31.7442 56.6112 31.7939ZM57.5537 30.0023C57.4558 29.9501 57.3789 29.8605 57.3274 29.7384C57.2758 29.6163 57.2506 29.4642 57.2532 29.2908C57.2559 29.1174 57.2862 28.9261 57.3426 28.7277C57.399 28.5294 57.4803 28.328 57.5819 28.1349C57.6834 27.9419 57.8033 27.761 57.9346 27.6026C58.0658 27.4442 58.206 27.3114 58.347 27.2118C58.488 27.1122 58.6272 27.0477 58.7565 27.022C58.8857 26.9963 59.0026 27.01 59.1005 27.0622C59.2981 27.1675 59.4062 27.4235 59.4009 27.7736C59.3957 28.1238 59.2775 28.5396 59.0724 28.9295C58.9708 29.1225 58.851 29.3034 58.7197 29.4618C58.5884 29.6202 58.4482 29.753 58.3072 29.8527C58.1662 29.9523 58.0271 30.0168 57.8978 30.0425C57.7685 30.0682 57.6516 30.0545 57.5537 30.0023ZM70.2745 19.3127L70.6129 18.6695L59.5274 12.7602L59.189 13.4034L70.2745 19.3127ZM71.0479 17.8426L71.3862 17.1994L60.3008 11.2902L59.9624 11.9333L71.0479 17.8426ZM71.8276 16.376C72.5765 14.964 73.8735 12.674 76.045 11.2123L74.7975 10.5473C74.2301 10.7022 73.7115 10.8766 73.2393 11.0696C73.3865 10.739 73.6507 10.3968 73.9265 10.083L72.2274 9.17721C71.8413 9.54314 71.5454 9.97229 71.2111 10.3746C71.3325 9.85961 71.4418 9.33809 71.6245 8.85585L68.9472 7.42862C68.9327 7.79886 68.8361 8.17104 68.7088 8.54399C68.6329 8.02825 68.4369 7.52371 68.1882 7.02403L66.498 6.12302C66.0387 6.45788 65.6051 6.80642 65.2663 7.20557C65.2063 6.60612 65.3736 6.11048 65.5687 5.62763L64.2592 4.92957C64.1771 5.14902 64.0367 5.34407 63.6992 5.59601C63.7767 5.20795 63.6886 4.87483 63.5468 4.54985L62.6025 4.04646C62.6218 6.67598 61.4689 9.04282 60.7295 10.4597L71.8276 16.376Z" fill="#80B14F"/>
<path d="M2.01136 44V32.3636H6.60227C7.48485 32.3636 8.23674 32.5322 8.85795 32.8693C9.47917 33.2027 9.95265 33.6667 10.2784 34.2614C10.608 34.8523 10.7727 35.5341 10.7727 36.3068C10.7727 37.0795 10.6061 37.7614 10.2727 38.3523C9.93939 38.9432 9.45644 39.4034 8.82386 39.733C8.19508 40.0625 7.43371 40.2273 6.53977 40.2273H3.61364V38.2557H6.14205C6.61553 38.2557 7.00568 38.1742 7.3125 38.0114C7.62311 37.8447 7.85417 37.6155 8.00568 37.3239C8.16098 37.0284 8.23864 36.6894 8.23864 36.3068C8.23864 35.9205 8.16098 35.5833 8.00568 35.2955C7.85417 35.0038 7.62311 34.7784 7.3125 34.6193C7.00189 34.4564 6.60795 34.375 6.13068 34.375H4.47159V44H2.01136ZM16.1619 44.1705C15.2642 44.1705 14.4915 43.9886 13.8438 43.625C13.1998 43.2576 12.7036 42.7386 12.3551 42.0682C12.0066 41.3939 11.8324 40.5966 11.8324 39.6761C11.8324 38.7784 12.0066 37.9905 12.3551 37.3125C12.7036 36.6345 13.1941 36.1061 13.8267 35.7273C14.4631 35.3485 15.2093 35.1591 16.0653 35.1591C16.6411 35.1591 17.1771 35.2519 17.6733 35.4375C18.1733 35.6193 18.6089 35.8939 18.9801 36.2614C19.3551 36.6288 19.6468 37.0909 19.8551 37.6477C20.0634 38.2008 20.1676 38.8485 20.1676 39.5909V40.2557H12.7983V38.7557H17.8892C17.8892 38.4072 17.8134 38.0985 17.6619 37.8295C17.5104 37.5606 17.3002 37.3504 17.0312 37.1989C16.7661 37.0436 16.4574 36.9659 16.1051 36.9659C15.7377 36.9659 15.4119 37.0511 15.1278 37.2216C14.8475 37.3883 14.6278 37.6136 14.4688 37.8977C14.3097 38.178 14.2282 38.4905 14.2244 38.8352V40.2614C14.2244 40.6932 14.304 41.0663 14.4631 41.3807C14.6259 41.6951 14.8551 41.9375 15.1506 42.108C15.446 42.2784 15.7964 42.3636 16.2017 42.3636C16.4706 42.3636 16.7169 42.3258 16.9403 42.25C17.1638 42.1742 17.3551 42.0606 17.5142 41.9091C17.6733 41.7576 17.7945 41.572 17.8778 41.3523L20.1165 41.5C20.0028 42.0379 19.7699 42.5076 19.4176 42.9091C19.0691 43.3068 18.6184 43.6174 18.0653 43.8409C17.5161 44.0606 16.8816 44.1705 16.1619 44.1705ZM21.7472 44V35.2727H24.1676V44H21.7472ZM22.9631 34.1477C22.6032 34.1477 22.2945 34.0284 22.0369 33.7898C21.7831 33.5473 21.6562 33.2576 21.6562 32.9205C21.6562 32.5871 21.7831 32.3011 22.0369 32.0625C22.2945 31.8201 22.6032 31.6989 22.9631 31.6989C23.3229 31.6989 23.6297 31.8201 23.8835 32.0625C24.1411 32.3011 24.2699 32.5871 24.2699 32.9205C24.2699 33.2576 24.1411 33.5473 23.8835 33.7898C23.6297 34.0284 23.3229 34.1477 22.9631 34.1477ZM28.527 38.9545V44H26.1065V35.2727H28.4134V36.8125H28.5156C28.7088 36.3049 29.0327 35.9034 29.4872 35.608C29.9418 35.3087 30.4929 35.1591 31.1406 35.1591C31.7467 35.1591 32.2751 35.2917 32.7259 35.5568C33.1766 35.822 33.527 36.2008 33.777 36.6932C34.027 37.1818 34.152 37.7652 34.152 38.4432V44H31.7315V38.875C31.7353 38.3409 31.599 37.9242 31.3224 37.625C31.0459 37.322 30.6652 37.1705 30.1804 37.1705C29.8546 37.1705 29.5668 37.2405 29.3168 37.3807C29.0705 37.5208 28.8774 37.7254 28.7372 37.9943C28.6009 38.2595 28.5308 38.5795 28.527 38.9545ZM40.7017 35.2727V37.0909H35.446V35.2727H40.7017ZM36.6392 33.1818H39.0597V41.3182C39.0597 41.5417 39.0938 41.7159 39.1619 41.8409C39.2301 41.9621 39.3248 42.0473 39.446 42.0966C39.571 42.1458 39.715 42.1705 39.8778 42.1705C39.9915 42.1705 40.1051 42.161 40.2188 42.142C40.3324 42.1193 40.4195 42.1023 40.4801 42.0909L40.8608 43.892C40.7396 43.9299 40.5691 43.9735 40.3494 44.0227C40.1297 44.0758 39.8627 44.108 39.5483 44.1193C38.965 44.142 38.4536 44.0644 38.0142 43.8864C37.5786 43.7083 37.2396 43.4318 36.9972 43.0568C36.7547 42.6818 36.6354 42.2083 36.6392 41.6364V33.1818ZM47.875 40.2841V35.2727H50.2955V44H47.9716V42.4148H47.8807C47.6837 42.9261 47.3561 43.3371 46.8977 43.6477C46.4432 43.9583 45.8883 44.1136 45.233 44.1136C44.6496 44.1136 44.1364 43.9811 43.6932 43.7159C43.25 43.4508 42.9034 43.0739 42.6534 42.5852C42.4072 42.0966 42.2822 41.5114 42.2784 40.8295V35.2727H44.6989V40.3977C44.7027 40.9129 44.8409 41.3201 45.1136 41.6193C45.3864 41.9186 45.7519 42.0682 46.2102 42.0682C46.5019 42.0682 46.7746 42.0019 47.0284 41.8693C47.2822 41.733 47.4867 41.5322 47.642 41.267C47.8011 41.0019 47.8788 40.6742 47.875 40.2841ZM52.2315 44V35.2727H54.5781V36.7955H54.669C54.8281 36.2538 55.0952 35.8447 55.4702 35.5682C55.8452 35.2879 56.277 35.1477 56.7656 35.1477C56.8868 35.1477 57.0175 35.1553 57.1577 35.1705C57.2978 35.1856 57.4209 35.2064 57.527 35.233V37.3807C57.4134 37.3466 57.2562 37.3163 57.0554 37.2898C56.8546 37.2633 56.6709 37.25 56.5043 37.25C56.1482 37.25 55.83 37.3277 55.5497 37.483C55.2732 37.6345 55.0535 37.8466 54.8906 38.1193C54.7315 38.392 54.652 38.7064 54.652 39.0625V44H52.2315ZM62.3494 44.1705C61.4517 44.1705 60.679 43.9886 60.0312 43.625C59.3873 43.2576 58.8911 42.7386 58.5426 42.0682C58.1941 41.3939 58.0199 40.5966 58.0199 39.6761C58.0199 38.7784 58.1941 37.9905 58.5426 37.3125C58.8911 36.6345 59.3816 36.1061 60.0142 35.7273C60.6506 35.3485 61.3968 35.1591 62.2528 35.1591C62.8286 35.1591 63.3646 35.2519 63.8608 35.4375C64.3608 35.6193 64.7964 35.8939 65.1676 36.2614C65.5426 36.6288 65.8343 37.0909 66.0426 37.6477C66.2509 38.2008 66.3551 38.8485 66.3551 39.5909V40.2557H58.9858V38.7557H64.0767C64.0767 38.4072 64.0009 38.0985 63.8494 37.8295C63.6979 37.5606 63.4877 37.3504 63.2188 37.1989C62.9536 37.0436 62.6449 36.9659 62.2926 36.9659C61.9252 36.9659 61.5994 37.0511 61.3153 37.2216C61.035 37.3883 60.8153 37.6136 60.6562 37.8977C60.4972 38.178 60.4157 38.4905 60.4119 38.8352V40.2614C60.4119 40.6932 60.4915 41.0663 60.6506 41.3807C60.8134 41.6951 61.0426 41.9375 61.3381 42.108C61.6335 42.2784 61.9839 42.3636 62.3892 42.3636C62.6581 42.3636 62.9044 42.3258 63.1278 42.25C63.3513 42.1742 63.5426 42.0606 63.7017 41.9091C63.8608 41.7576 63.982 41.572 64.0653 41.3523L66.304 41.5C66.1903 42.0379 65.9574 42.5076 65.6051 42.9091C65.2566 43.3068 64.8059 43.6174 64.2528 43.8409C63.7036 44.0606 63.0691 44.1705 62.3494 44.1705Z" fill="#0E0F0C" fill-opacity="0.6"/>
</svg>
