<svg width="220" height="80" viewBox="0 0 220 80" fill="none" xmlns="http://www.w3.org/2000/svg">
<path d="M3.736 49.8116V16.2116H15.064V41.0276H30.232V49.8116H3.736ZM50.5083 50.5796C47.7883 50.5796 45.2603 50.1476 42.9243 49.2836C40.6203 48.4196 38.6203 47.2036 36.9243 45.6356C35.2283 44.0356 33.9003 42.1636 32.9403 40.0196C32.0123 37.8756 31.5483 35.5396 31.5483 33.0116C31.5483 30.4516 32.0123 28.1156 32.9403 26.0036C33.9003 23.8596 35.2283 22.0036 36.9243 20.4356C38.6203 18.8356 40.6203 17.6036 42.9243 16.7396C45.2603 15.8756 47.7883 15.4436 50.5083 15.4436C53.2603 15.4436 55.7883 15.8756 58.0923 16.7396C60.3963 17.6036 62.3963 18.8356 64.0923 20.4356C65.7883 22.0036 67.1003 23.8596 68.0283 26.0036C68.9883 28.1156 69.4683 30.4516 69.4683 33.0116C69.4683 35.5396 68.9883 37.8756 68.0283 40.0196C67.1003 42.1636 65.7883 44.0356 64.0923 45.6356C62.3963 47.2036 60.3963 48.4196 58.0923 49.2836C55.7883 50.1476 53.2603 50.5796 50.5083 50.5796ZM50.5083 41.4116C51.5643 41.4116 52.5403 41.2196 53.4363 40.8356C54.3643 40.4516 55.1643 39.9076 55.8363 39.2036C56.5403 38.4676 57.0843 37.5876 57.4683 36.5636C57.8523 35.5076 58.0443 34.3236 58.0443 33.0116C58.0443 31.6996 57.8523 30.5316 57.4683 29.5076C57.0843 28.4516 56.5403 27.5716 55.8363 26.8676C55.1643 26.1316 54.3643 25.5716 53.4363 25.1876C52.5403 24.8036 51.5643 24.6116 50.5083 24.6116C49.4523 24.6116 48.4603 24.8036 47.5323 25.1876C46.6363 25.5716 45.8363 26.1316 45.1323 26.8676C44.4603 27.5716 43.9323 28.4516 43.5483 29.5076C43.1643 30.5316 42.9723 31.6996 42.9723 33.0116C42.9723 34.3236 43.1643 35.5076 43.5483 36.5636C43.9323 37.5876 44.4603 38.4676 45.1323 39.2036C45.8363 39.9076 46.6363 40.4516 47.5323 40.8356C48.4603 41.2196 49.4523 41.4116 50.5083 41.4116ZM73.5798 49.8116V16.2116H89.7558C92.8918 16.2116 95.5958 16.7236 97.8678 17.7476C100.172 18.7716 101.948 20.2436 103.196 22.1636C104.444 24.0516 105.068 26.2916 105.068 28.8836C105.068 31.4756 104.444 33.7156 103.196 35.6036C101.948 37.4916 100.172 38.9636 97.8678 40.0196C95.5958 41.0436 92.8918 41.5556 89.7558 41.5556H79.8678L84.9078 36.7076V49.8116H73.5798ZM84.9078 37.9556L79.8678 32.8196H89.0358C90.6038 32.8196 91.7558 32.4676 92.4918 31.7636C93.2598 31.0596 93.6438 30.0996 93.6438 28.8836C93.6438 27.6676 93.2598 26.7076 92.4918 26.0036C91.7558 25.2996 90.6038 24.9476 89.0358 24.9476H79.8678L84.9078 19.8116V37.9556ZM119.151 28.6916H134.127V36.8516H119.151V28.6916ZM119.919 41.2676H136.719V49.8116H108.783V16.2116H136.095V24.7556H119.919V41.2676ZM153.608 50.5796C150.792 50.5796 148.072 50.2596 145.448 49.6196C142.824 48.9796 140.664 48.1476 138.968 47.1236L142.616 38.8676C144.216 39.7956 145.992 40.5476 147.944 41.1236C149.928 41.6676 151.848 41.9396 153.704 41.9396C154.792 41.9396 155.64 41.8756 156.248 41.7476C156.888 41.5876 157.352 41.3796 157.64 41.1236C157.928 40.8356 158.072 40.4996 158.072 40.1156C158.072 39.5076 157.736 39.0276 157.064 38.6756C156.392 38.3236 155.496 38.0356 154.376 37.8116C153.288 37.5556 152.088 37.2996 150.776 37.0436C149.464 36.7556 148.136 36.3876 146.792 35.9396C145.48 35.4916 144.264 34.8996 143.144 34.1636C142.056 33.4276 141.176 32.4676 140.504 31.2836C139.832 30.0676 139.496 28.5636 139.496 26.7716C139.496 24.6916 140.072 22.8036 141.224 21.1076C142.408 19.3796 144.152 18.0036 146.456 16.9796C148.792 15.9556 151.688 15.4436 155.144 15.4436C157.416 15.4436 159.656 15.6836 161.864 16.1636C164.072 16.6436 166.056 17.3796 167.816 18.3716L164.408 26.5796C162.744 25.7476 161.128 25.1236 159.56 24.7076C158.024 24.2916 156.52 24.0836 155.048 24.0836C153.96 24.0836 153.096 24.1796 152.456 24.3716C151.816 24.5636 151.352 24.8196 151.064 25.1396C150.808 25.4596 150.68 25.8116 150.68 26.1956C150.68 26.7716 151.016 27.2356 151.688 27.5876C152.36 27.9076 153.24 28.1796 154.328 28.4036C155.448 28.6276 156.664 28.8676 157.976 29.1236C159.32 29.3796 160.648 29.7316 161.96 30.1796C163.272 30.6276 164.472 31.2196 165.56 31.9556C166.68 32.6916 167.576 33.6516 168.248 34.8356C168.92 36.0196 169.256 37.4916 169.256 39.2516C169.256 41.2996 168.664 43.1876 167.48 44.9156C166.328 46.6116 164.6 47.9876 162.296 49.0436C159.992 50.0676 157.096 50.5796 153.608 50.5796Z" fill="white"/>
<path d="M176.369 52.7255C176.515 52.8027 176.83 52.8277 177.428 52.5014C178.026 52.175 178.821 51.5174 179.713 50.506L179.721 50.4967L179.73 50.4878C184.064 45.8737 185.384 39.7406 188.575 33.7095C188.775 33.3312 189.116 33.1168 189.436 32.9966C189.756 32.8764 190.09 32.828 190.45 32.8087C191.171 32.7703 192.006 32.862 192.891 33.0272C194.38 33.3052 195.961 33.7938 197.192 34.3428L197.771 33.2479L180.431 24.0736L179.852 25.1685C180.998 25.8774 182.292 26.9093 183.359 27.9841C183.993 28.6225 184.539 29.2612 184.913 29.879C185.1 30.1879 185.247 30.4909 185.328 30.8232C185.409 31.1555 185.424 31.558 185.223 31.9363C182.185 37.6791 177.892 41.5913 176.329 48.6862L176.326 48.6992L176.322 48.712C175.988 50.0186 175.892 51.046 175.959 51.7239C176.025 52.402 176.223 52.6484 176.369 52.7255ZM177.93 49.7743C177.777 49.6933 177.659 49.5505 177.582 49.354C177.505 49.1574 177.471 48.9111 177.481 48.6289C177.492 48.3468 177.547 48.0344 177.644 47.7096C177.741 47.3847 177.878 47.0539 178.046 46.7359C178.214 46.4178 178.411 46.1189 178.625 45.8561C178.839 45.5933 179.066 45.3718 179.293 45.2042C179.521 45.0366 179.743 44.9262 179.949 44.8794C180.155 44.8325 180.34 44.8501 180.493 44.9311C180.802 45.0947 180.964 45.5067 180.942 46.0765C180.92 46.6463 180.717 47.3272 180.377 47.9694C180.209 48.2874 180.012 48.5864 179.798 48.8492C179.584 49.112 179.357 49.3336 179.13 49.5012C178.903 49.6688 178.68 49.7792 178.474 49.8261C178.268 49.8729 178.083 49.8553 177.93 49.7743ZM198.492 31.8857L199.052 30.8262L181.712 21.6521L181.152 22.7116L198.492 31.8857ZM199.773 29.4641L200.334 28.4046L182.994 19.2305L182.433 20.2899L199.773 29.4641ZM201.064 27.0478C202.304 24.7217 204.447 20.9458 207.943 18.4827L205.991 17.4502C205.086 17.7245 204.258 18.0287 203.503 18.3613C203.748 17.8178 204.18 17.2507 204.629 16.7294L201.971 15.3232C201.346 15.9336 200.86 16.6433 200.315 17.3108C200.527 16.4684 200.72 15.6159 201.028 14.8243L196.84 12.6085C196.803 13.2113 196.636 13.8205 196.42 14.4321C196.319 13.5962 196.028 12.7833 195.653 11.9804L193.009 10.5816C192.269 11.1444 191.569 11.7284 191.017 12.3909C190.944 11.4183 191.228 10.6055 191.556 9.81249L189.507 8.72875C189.369 9.08892 189.139 9.41171 188.595 9.83481C188.732 9.20057 188.605 8.66222 188.393 8.13923L186.916 7.35772C186.846 11.6339 184.93 15.5291 183.705 17.8629L201.064 27.0478Z" fill="#80B14F"/>
<path d="M109.517 74.8118V57.3572H116.403C117.727 57.3572 118.855 57.6101 119.787 58.1157C120.719 58.6157 121.429 59.3118 121.918 60.2038C122.412 61.0902 122.659 62.1129 122.659 63.272C122.659 64.4311 122.409 65.4538 121.909 66.3402C121.409 67.2265 120.685 67.9169 119.736 68.4112C118.793 68.9055 117.651 69.1527 116.31 69.1527H111.92V66.1953H115.713C116.423 66.1953 117.009 66.0731 117.469 65.8288C117.935 65.5788 118.281 65.2351 118.509 64.7976C118.741 64.3544 118.858 63.8459 118.858 63.272C118.858 62.6924 118.741 62.1868 118.509 61.7549C118.281 61.3174 117.935 60.9794 117.469 60.7407C117.003 60.4964 116.412 60.3743 115.696 60.3743H113.207V74.8118H109.517ZM130.743 75.0674C129.396 75.0674 128.237 74.7947 127.266 74.2493C126.3 73.6981 125.555 72.9197 125.033 71.914C124.51 70.9027 124.249 69.7067 124.249 68.326C124.249 66.9794 124.51 65.7976 125.033 64.7805C125.555 63.7635 126.291 62.9709 127.24 62.4027C128.195 61.8345 129.314 61.5504 130.598 61.5504C131.462 61.5504 132.266 61.6896 133.01 61.968C133.76 62.2407 134.413 62.6527 134.97 63.2038C135.533 63.7549 135.97 64.4481 136.283 65.2834C136.595 66.1129 136.751 67.0845 136.751 68.1981V69.1953H125.697V66.9453H133.334C133.334 66.4226 133.22 65.9595 132.993 65.5561C132.766 65.1527 132.45 64.8373 132.047 64.6101C131.649 64.3771 131.186 64.2606 130.658 64.2606C130.107 64.2606 129.618 64.3885 129.192 64.6442C128.771 64.8942 128.442 65.2322 128.203 65.6584C127.964 66.0788 127.842 66.5476 127.837 67.0646V69.2038C127.837 69.8515 127.956 70.4112 128.195 70.8828C128.439 71.3544 128.783 71.718 129.226 71.9737C129.669 72.2294 130.195 72.3572 130.803 72.3572C131.206 72.3572 131.575 72.3004 131.911 72.1868C132.246 72.0731 132.533 71.9027 132.771 71.6754C133.01 71.4481 133.192 71.1697 133.317 70.8402L136.675 71.0618C136.504 71.8686 136.155 72.5731 135.626 73.1754C135.104 73.772 134.428 74.2379 133.598 74.5731C132.774 74.9027 131.822 75.0674 130.743 75.0674ZM139.121 74.8118V61.7209H142.751V74.8118H139.121ZM140.945 60.0334C140.405 60.0334 139.942 59.8544 139.555 59.4964C139.175 59.1328 138.984 58.6981 138.984 58.1924C138.984 57.6924 139.175 57.2635 139.555 56.9055C139.942 56.5419 140.405 56.3601 140.945 56.3601C141.484 56.3601 141.945 56.5419 142.325 56.9055C142.712 57.2635 142.905 57.6924 142.905 58.1924C142.905 58.6981 142.712 59.1328 142.325 59.4964C141.945 59.8544 141.484 60.0334 140.945 60.0334ZM149.29 67.2436V74.8118H145.66V61.7209H149.12V64.0305H149.273C149.563 63.2692 150.049 62.6669 150.731 62.2237C151.413 61.7748 152.239 61.5504 153.211 61.5504C154.12 61.5504 154.913 61.7493 155.589 62.147C156.265 62.5447 156.79 63.1129 157.165 63.8515C157.54 64.5845 157.728 65.4595 157.728 66.4765V74.8118H154.097V67.1243C154.103 66.3231 153.898 65.6981 153.484 65.2493C153.069 64.7947 152.498 64.5674 151.771 64.5674C151.282 64.5674 150.85 64.6726 150.475 64.8828C150.106 65.093 149.816 65.3998 149.606 65.8032C149.401 66.201 149.296 66.6811 149.29 67.2436ZM167.553 61.7209V64.4481H159.669V61.7209H167.553ZM161.459 58.5845H165.089V70.789C165.089 71.1243 165.141 71.3856 165.243 71.5731C165.345 71.7549 165.487 71.8828 165.669 71.9567C165.857 72.0305 166.072 72.0674 166.317 72.0674C166.487 72.0674 166.658 72.0532 166.828 72.0248C166.999 71.9907 167.129 71.9652 167.22 71.9481L167.791 74.6498C167.609 74.7067 167.354 74.772 167.024 74.8459C166.695 74.9254 166.294 74.9737 165.822 74.9907C164.947 75.0248 164.18 74.9084 163.521 74.6413C162.868 74.3743 162.359 73.9595 161.996 73.397C161.632 72.8345 161.453 72.1243 161.459 71.2663V58.5845ZM178.312 69.2379V61.7209H181.943V74.8118H178.457V72.4339H178.321C178.026 73.201 177.534 73.8174 176.847 74.2834C176.165 74.7493 175.332 74.9822 174.349 74.9822C173.474 74.9822 172.705 74.7834 172.04 74.3856C171.375 73.9879 170.855 73.4226 170.48 72.6896C170.111 71.9567 169.923 71.0788 169.918 70.0561V61.7209H173.548V69.4084C173.554 70.1811 173.761 70.7919 174.17 71.2407C174.58 71.6896 175.128 71.914 175.815 71.914C176.253 71.914 176.662 71.8146 177.043 71.6157C177.423 71.4112 177.73 71.1101 177.963 70.7123C178.202 70.3146 178.318 69.8231 178.312 69.2379ZM184.847 74.8118V61.7209H188.367V64.0049H188.504C188.742 63.1924 189.143 62.5788 189.705 62.164C190.268 61.7436 190.915 61.5334 191.648 61.5334C191.83 61.5334 192.026 61.5447 192.237 61.5674C192.447 61.5902 192.631 61.6214 192.79 61.6612V64.8828C192.62 64.8317 192.384 64.7862 192.083 64.7464C191.782 64.7067 191.506 64.6868 191.256 64.6868C190.722 64.6868 190.245 64.8032 189.825 65.0362C189.41 65.2635 189.08 65.5817 188.836 65.9907C188.597 66.3998 188.478 66.8714 188.478 67.4055V74.8118H184.847ZM200.024 75.0674C198.678 75.0674 197.518 74.7947 196.547 74.2493C195.581 73.6981 194.837 72.9197 194.314 71.914C193.791 70.9027 193.53 69.7067 193.53 68.326C193.53 66.9794 193.791 65.7976 194.314 64.7805C194.837 63.7635 195.572 62.9709 196.521 62.4027C197.476 61.8345 198.595 61.5504 199.879 61.5504C200.743 61.5504 201.547 61.6896 202.291 61.968C203.041 62.2407 203.695 62.6527 204.251 63.2038C204.814 63.7549 205.251 64.4481 205.564 65.2834C205.876 66.1129 206.033 67.0845 206.033 68.1981V69.1953H194.979V66.9453H202.615C202.615 66.4226 202.501 65.9595 202.274 65.5561C202.047 65.1527 201.732 64.8373 201.328 64.6101C200.93 64.3771 200.467 64.2606 199.939 64.2606C199.388 64.2606 198.899 64.3885 198.473 64.6442C198.053 64.8942 197.723 65.2322 197.484 65.6584C197.246 66.0788 197.124 66.5476 197.118 67.0646V69.2038C197.118 69.8515 197.237 70.4112 197.476 70.8828C197.72 71.3544 198.064 71.718 198.507 71.9737C198.95 72.2294 199.476 72.3572 200.084 72.3572C200.487 72.3572 200.857 72.3004 201.192 72.1868C201.527 72.0731 201.814 71.9027 202.053 71.6754C202.291 71.4481 202.473 71.1697 202.598 70.8402L205.956 71.0618C205.786 71.8686 205.436 72.5731 204.908 73.1754C204.385 73.772 203.709 74.2379 202.879 74.5731C202.055 74.9027 201.104 75.0674 200.024 75.0674Z" fill="white"/>
</svg>
